<svg width="32" height="26" viewBox="0 0 32 26" fill="none" xmlns="http://www.w3.org/2000/svg">
<path d="M32 9.75V3.25C32 1.44625 30.56 0 28.8 0H3.2C1.44 0 0.016 1.44625 0.016 3.25V9.75C1.776 9.75 3.2 11.2125 3.2 13C3.2 14.7875 1.776 16.25 0 16.25V22.75C0 24.5375 1.44 26 3.2 26H28.8C30.56 26 32 24.5375 32 22.75V16.25C30.24 16.25 28.8 14.7875 28.8 13C28.8 11.2125 30.24 9.75 32 9.75ZM17.6 21.9375H14.4V18.6875H17.6V21.9375ZM17.6 14.625H14.4V11.375H17.6V14.625ZM17.6 7.3125H14.4V4.0625H17.6V7.3125Z" fill="#E4B95D"/>
</svg>
